<svg width="86" height="20" viewBox="0 0 86 20" fill="none" xmlns="http://www.w3.org/2000/svg">
<path fill-rule="evenodd" clip-rule="evenodd" d="M84.4684 13.0202C83.6296 15.4267 82.7767 17.1841 82.117 18.3622C81.4384 19.5716 80.113 20.2065 78.8125 19.9397C77.5677 19.6856 75.7813 19.2172 73.4851 18.3586C71.1922 17.4996 69.53 16.6756 68.4169 16.0486C67.2517 15.3921 66.6242 14.0265 66.8487 12.6466C67.0671 11.302 67.496 9.38722 68.3349 6.98077C69.1752 4.57238 70.0269 2.8162 70.6873 1.63833C71.3659 0.42891 72.6905 -0.206184 73.992 0.0600964C75.2351 0.314417 77.0208 0.782553 79.3152 1.63962C81.6106 2.50042 83.2731 3.32372 84.3881 3.95217C85.5518 4.60822 86.1795 5.97553 85.9549 7.35367C85.7367 8.69753 85.3082 10.6133 84.4684 13.0202Z" fill="#00C2FC"/>
<path fill-rule="evenodd" clip-rule="evenodd" d="M62.1748 6.94503C63.0236 9.34347 63.4597 11.2548 63.6848 12.5947C63.9147 13.971 63.2941 15.338 62.1341 15.9989C61.0245 16.6324 59.3679 17.4623 57.0796 18.3328C54.7936 19.2007 53.0116 19.676 51.7719 19.9368C50.4739 20.2096 49.1481 19.5825 48.4652 18.3778C47.7994 17.2042 46.9416 15.4544 46.0927 13.0559C45.2439 10.655 44.8076 8.74542 44.5832 7.40532C44.3533 6.02898 44.9732 4.66225 46.1336 4.00035C47.2421 3.36806 48.898 2.53848 51.184 1.66805C53.473 0.799771 55.2547 0.32375 56.4968 0.0628901C57.7934 -0.209332 59.1204 0.418975 59.8021 1.62243C60.4676 2.79534 61.3264 4.54559 62.1748 6.94503Z" fill="#06C92E"/>
<path fill-rule="evenodd" clip-rule="evenodd" d="M39.9326 13.0202C39.0938 15.4267 38.2409 17.1841 37.5812 18.3622C36.9026 19.5716 35.5773 20.2065 34.2768 19.9397C33.032 19.6856 31.2456 19.2172 28.9494 18.3586C26.6565 17.4996 24.9942 16.6756 23.8811 16.0486C22.716 15.3921 22.0885 14.0265 22.3129 12.6466C22.5313 11.302 22.9603 9.38722 23.7991 6.98077C24.6394 4.57238 25.4911 2.8162 26.1515 1.63833C26.8301 0.42891 28.1548 -0.206184 29.4562 0.0600964C30.6994 0.314417 32.485 0.782553 34.7794 1.63962C37.0748 2.50042 38.7374 3.32372 39.8523 3.95217C41.0161 4.60822 41.6437 5.97553 41.4191 7.35367C41.201 8.69753 40.7725 10.6133 39.9326 13.0202Z" fill="#FABC22"/>
<path fill-rule="evenodd" clip-rule="evenodd" d="M17.639 6.94503C18.4879 9.34347 18.9239 11.2548 19.149 12.5947C19.379 13.971 18.7584 15.338 17.5983 15.9989C16.4887 16.6324 14.8321 17.4623 12.5438 18.3328C10.2578 19.2007 8.47588 19.676 7.23612 19.9368C5.93817 20.2096 4.61235 19.5825 3.92939 18.3778C3.26365 17.2042 2.40579 15.4544 1.55698 13.0559C0.708085 10.655 0.27183 8.74542 0.0474699 7.40532C-0.18251 6.02898 0.437406 4.66225 1.59787 4.00035C2.70635 3.36806 4.36227 2.53848 6.64819 1.66805C8.93725 0.799771 10.7189 0.32375 11.961 0.0628901C13.2576 -0.209332 14.5846 0.418975 15.2664 1.62243C15.9319 2.79534 16.7907 4.54559 17.639 6.94503Z" fill="#F72A16"/>
</svg>
